# xmcd
#
# Track frame offsets:
# 150
# 15734
# 37398
# 57658
# 74236
# 90742
# 107355
# 120148
# 133037
# 145514
# 154952
# 166773
# 183989
# 193810
#
# Disc length: 2898 seconds
#
#
# Revision: 0
# Processed by: cddbd v1.5.2PL0 Copyright (c) Steve Scherf et al.
# Submitted via: FreeRIP 2.96 
#
DISCID=c60b500e
DTITLE=wildwood flower - blue moon lights
DYEAR=2008
DGENRE=Country
TTITLE0=blue moon nights
TTITLE1=margaritaville
TTITLE2=I walk the line
TTITLE3=achy breaky heart
TTITLE4=cest la vie
TTITLE5=scatter the ashes
TTITLE6=think it over
TTITLE7=mercury blues
TTITLE8=some broken heart
TTITLE9=honk if you honky
TTITLE10=cherokee boogie
TTITLE11=Im from the country
TTITLE12=blue moon of kentucky
TTITLE13=dixieland delight
EXTD=
EXTT0=
EXTT1=
EXTT2=
EXTT3=
EXTT4=
EXTT5=
EXTT6=
EXTT7=
EXTT8=
EXTT9=
EXTT10=
EXTT11=
EXTT12=
EXTT13=
PLAYORDER=
